<?xml version="1.0" standalone="no"?>
<!DOCTYPE svg PUBLIC "-//W3C//DTD SVG 20010904//EN"
 "http://www.w3.org/TR/2001/REC-SVG-20010904/DTD/svg10.dtd">
<svg version="1.0" xmlns="http://www.w3.org/2000/svg"
 width="672.000000pt" height="672.000000pt" viewBox="0 0 672.000000 672.000000"
 preserveAspectRatio="xMidYMid meet">
<metadata>
Created by potrace 1.14, written by Peter Selinger 2001-2017
</metadata>
<g transform="translate(0.000000,672.000000) scale(0.100000,-0.100000)"
fill="#000000" stroke="none">
<path d="M4679 6716 c-2 -2 -23 -6 -47 -10 -81 -11 -294 -74 -300 -88 -2 -5
-10 -8 -19 -8 -27 0 -196 -90 -298 -158 -110 -74 -274 -230 -348 -332 -26 -36
-51 -70 -56 -76 -17 -21 -101 -174 -127 -231 -44 -98 -79 -206 -100 -308 -2
-11 -7 -31 -10 -45 -3 -14 -7 -89 -9 -167 l-3 -143 31 -1 c141 -7 251 9 384
55 74 25 215 94 221 108 2 5 8 8 13 8 12 0 148 99 197 144 40 36 151 149 182
186 12 14 29 34 39 45 9 11 32 43 51 70 18 28 36 52 40 55 9 8 84 140 102 180
38 82 65 146 67 155 1 6 10 39 21 75 31 104 46 226 46 360 l-1 125 -36 2 c-20
1 -38 1 -40 -1z"/>
<path d="M4528 5145 c-1 -2 -34 -6 -71 -9 -38 -3 -71 -7 -75 -10 -4 -2 -24 -7
-45 -10 -68 -11 -195 -43 -247 -63 -8 -3 -20 -7 -27 -9 -6 -1 -49 -16 -95 -32
-142 -52 -260 -94 -272 -97 -6 -1 -18 -5 -26 -8 -60 -24 -265 -79 -272 -72 -2
2 -20 6 -40 9 -54 8 -170 42 -283 81 -55 20 -104 37 -110 39 -5 2 -17 6 -25 9
-79 31 -268 92 -315 103 -5 1 -28 7 -50 12 -22 6 -56 14 -75 17 -19 3 -51 10
-71 14 -52 12 -265 12 -295 1 -18 -7 -23 -7 -18 2 4 6 3 9 -2 5 -5 -3 -30 -8
-54 -12 -59 -8 -202 -41 -265 -61 -80 -26 -265 -106 -265 -115 0 -5 -6 -9 -13
-9 -16 0 -146 -81 -222 -138 -113 -87 -231 -203 -312 -309 -59 -77 -103 -143
-103 -153 0 -5 -3 -10 -7 -10 -5 0 -13 -10 -19 -23 -6 -12 -29 -56 -52 -98
-67 -124 -155 -359 -177 -474 -2 -11 -4 -20 -5 -20 -1 0 -3 -9 -5 -20 -1 -11
-5 -33 -8 -50 -11 -54 -28 -169 -35 -230 -14 -125 -5 -605 13 -675 2 -8 7 -42
10 -75 4 -32 8 -62 10 -65 2 -4 7 -26 10 -51 7 -52 13 -84 15 -84 1 0 3 -9 5
-20 3 -18 19 -92 30 -140 3 -11 7 -29 10 -40 41 -178 168 -532 261 -730 21
-44 38 -82 39 -85 0 -3 7 -16 15 -30 12 -23 57 -107 98 -185 9 -16 35 -60 59
-98 24 -37 43 -71 43 -76 0 -5 3 -11 8 -13 4 -1 20 -23 37 -48 52 -78 159
-225 167 -228 5 -2 8 -10 8 -17 0 -7 3 -15 8 -17 4 -2 23 -23 42 -48 19 -25
37 -47 40 -50 3 -3 25 -30 50 -60 83 -102 121 -141 253 -262 29 -26 55 -48 59
-48 4 0 13 -6 20 -13 19 -18 86 -61 138 -88 173 -90 357 -108 560 -53 30 8 63
17 73 19 26 6 167 55 202 70 17 7 73 28 125 45 52 18 102 35 110 38 18 6 13 5
75 20 182 43 418 51 575 18 126 -27 202 -50 375 -116 102 -39 212 -75 260 -85
11 -3 43 -10 70 -16 56 -14 248 -18 310 -7 128 23 291 98 394 183 149 123 270
255 425 465 43 58 83 112 89 120 23 30 127 190 127 196 0 3 9 19 21 35 23 33
76 127 112 199 12 25 25 47 30 48 4 2 7 7 7 12 0 4 20 50 43 102 24 51 61 138
81 193 21 55 46 122 57 149 18 46 18 49 2 62 -10 7 -26 14 -35 14 -9 0 -19 4
-23 9 -3 6 -29 21 -58 35 -97 45 -240 157 -369 288 -71 71 -128 133 -128 139
0 8 -20 35 -47 64 -7 8 -13 17 -13 20 0 4 -8 19 -18 33 -31 45 -77 134 -101
197 -13 33 -27 69 -31 80 -15 34 -49 169 -56 221 -3 27 -9 69 -13 94 -13 85
-4 369 14 448 7 30 13 61 21 97 16 80 89 259 146 355 67 115 187 255 297 346
36 30 75 63 86 73 11 9 52 38 92 64 55 37 71 52 66 65 -4 9 -9 19 -12 22 -3 3
-31 34 -60 70 -58 69 -134 144 -190 188 -19 15 -39 32 -45 37 -36 32 -121 84
-219 134 -110 57 -257 116 -257 105 0 -4 -6 -2 -13 4 -7 6 -25 13 -40 16 -15
2 -30 7 -35 10 -5 3 -24 8 -43 11 -19 3 -45 8 -59 10 -14 3 -36 8 -50 10 -27
6 -66 12 -120 20 -42 7 -297 15 -302 10z"/>
</g>
</svg>
